# xmcd
#
# Track frame offsets:
# 150
# 11617
# 22805
# 36355
# 47257
# 60557
# 72717
# 82647
# 99532
# 109947
# 121512
# 135032
#
# Disc length: 1947 seconds
#
#
# Revision: 2
# Processed by: cddbd v1.5.1PL2 Copyright (c) Steve Scherf et al.
# Submitted via: FreeRIP 2.945 
#
DISCID=8507990c
DTITLE=Little Jimmy Dickens - The Best Of The Best Of
DYEAR=1990
DGENRE=Country
TTITLE0=Take An Old Cold Tater And Wait
TTITLE1=I'm Little But I'm Loud
TTITLE2=My Heart's Bouquet
TTITLE3=A-Sleeping At The Foot Of The Bed
TTITLE4=Another Bridge To Burn
TTITLE5=Life Turned Her That Way
TTITLE6=May The Bird Of Paradise Fly Up Your Nose
TTITLE7=We Could
TTITLE8=Hillbilly Fever
TTITLE9=Country Boy
TTITLE10=Violet And The Rose
TTITLE11=Out Behind The Barn
EXTD=Highland Music-HCD-441
EXTT0=
EXTT1=
EXTT2=
EXTT3=
EXTT4=
EXTT5=
EXTT6=
EXTT7=
EXTT8=
EXTT9=
EXTT10=
EXTT11=
PLAYORDER=
